<svg xmlns="http://www.w3.org/2000/svg" viewBox="0 0 24 30" fill="none" x="0px" y="0px">
  <path fill-rule="evenodd" clip-rule="evenodd" d="M15 17C16.1046 17 17 16.1046 17 15C17 13.8954 16.1046 13 15 13C13.8954 13 13 13.8954 13 15C13 16.1046 13.8954 17 15 17ZM15 16C15.5523 16 16 15.5523 16 15C16 14.4477 15.5523 14 15 14C14.4477 14 14 14.4477 14 15C14 15.5523 14.4477 16 15 16Z" fill="black" stroke="black" stroke-width="1"/>
  <path fill-rule="evenodd" clip-rule="evenodd" d="M11 15C11 16.1046 10.1046 17 9 17C7.89543 17 7 16.1046 7 15C7 13.8954 7.89543 13 9 13C10.1046 13 11 13.8954 11 15ZM10 15C10 15.5523 9.55228 16 9 16C8.44772 16 8 15.5523 8 15C8 14.4477 8.44772 14 9 14C9.55228 14 10 14.4477 10 15Z" fill="black" stroke="black" stroke-width="1"/>
  <path fill-rule="evenodd" clip-rule="evenodd" d="M9 11C10.1046 11 11 10.1046 11 9C11 7.89543 10.1046 7 9 7C7.89543 7 7 7.89543 7 9C7 10.1046 7.89543 11 9 11ZM9 10C9.55228 10 10 9.55228 10 9C10 8.44772 9.55228 8 9 8C8.44772 8 8 8.44772 8 9C8 9.55228 8.44772 10 9 10Z" fill="black" stroke="black" stroke-width="1"/>
  <path fill-rule="evenodd" clip-rule="evenodd" d="M16 9.0004C16.2591 9.19499 16.5377 9.365 16.8323 9.50697C16.8625 9.52154 16.8929 9.53582 16.9235 9.54979C17.5559 9.83891 18.2592 10 19 10L19.0172 10C19.3543 9.99886 19.6835 9.96438 20.0016 9.89968C20.0006 9.93298 20 9.96643 20 10C20 10.3109 20.0473 10.6107 20.135 10.8926C20.4126 11.7843 21.0949 12.4976 21.9671 12.8174C21.5512 17.958 17.2476 22 12 22C6.47715 22 2 17.5229 2 12C2 6.7524 6.04205 2.44884 11.1826 2.03296C11.5024 2.90514 12.2157 3.5875 13.1074 3.86502C13.3894 3.95277 13.6892 4.00005 14 4.00005C14.0336 4.00005 14.067 3.9995 14.1004 3.9984C14.0345 4.32202 14 4.65699 14 5.00003C14 5.74087 14.1611 6.44409 14.4502 7.07654C14.5989 7.40178 14.7815 7.7083 14.9933 7.99161C14.9954 7.99442 14.9975 7.99723 14.9996 8.00003C15.2842 8.37882 15.6212 8.71588 16 9.0004ZM10.6002 3.10811C6.29487 3.78007 3 7.50573 3 12C3 16.9706 7.02944 21 12 21C16.4943 21 20.22 17.7051 20.8919 13.3998C20.0295 12.8639 19.3853 12.0088 19.1257 10.9987C19.0839 10.9996 19.042 11 19 11C18.0737 11 17.1964 10.7901 16.4132 10.4153C16.0513 10.7766 15.5518 11 15 11C13.8954 11 13 10.1046 13 9.00003C13 8.44828 13.2234 7.94871 13.5847 7.58686C13.2099 6.80359 13 5.92632 13 5.00003C13 4.95805 13.0004 4.91617 13.0013 4.87438C11.9912 4.61476 11.1361 3.97057 10.6002 3.10811ZM14.1304 8.50601C14.0474 8.65174 14 8.82035 14 9.00003C14 9.55232 14.4477 10 15 10C15.1797 10 15.3483 9.95264 15.494 9.86968C14.9695 9.4914 14.5086 9.03049 14.1304 8.50601Z" fill="black" stroke="black" stroke-width="1"/>
  <text x="0" y="39" fill="#000000" font-size="5px" font-weight="bold" font-family="'Helvetica Neue', Helvetica, Arial-Unicode, Arial, Sans-serif">Created by Philipp Koerner</text>
  <text x="0" y="44" fill="#000000" font-size="5px" font-weight="bold" font-family="'Helvetica Neue', Helvetica, Arial-Unicode, Arial, Sans-serif">from the Noun Project</text>
</svg>
